v -0.0079422 -0.0255585 0.196167
v 0.00538635 -0.0161743 0.194946
v -0.0105286 -0.00986481 0.194824
v -0.0105286 -0.00986481 0.194824
v -0.00124645 -0.0148392 0.14856
v -0.0079422 -0.0255585 0.196167
v -0.00241089 -0.00315285 0.148682
v -0.00320816 -0.00721741 0.0878296
v 0.00538635 -0.0161743 0.194946
v -0.00388336 0.0066452 0.0879517
v -0.00124645 -0.0148392 0.14856
v -0.0079422 -0.0255585 0.196167
v 0.00947571 -0.00677109 0.148926
v 0.0103149 0.00328827 0.0845947
v -0.00320816 -0.00721741 0.0878296
v 0 0 0.0903931
v 0.0822144 0 0.114868
v 0.058136 0.058197 0.114868
v 0.0869751 0.0869751 0.0927734
v 0.122986 0 0.0927734
v 0.093811 0.093811 0.029419
v 0 0 0.0903931
v 0.058136 -0.0581665 0.114868
v 0.132568 0 0.029419
v 0.0834351 0.0834351 -0.041626
v 0.0869751 -0.0869751 0.0927734
v 0 0 0.0903931
v 0 -0.0822754 0.114868
v 0.117981 0 -0.041626
v 0.0471497 0.0471802 -0.111633
v 0.093811 -0.093811 0.029419
v 0.0666504 0 -0.111633
v 0 0 -0.121704
v 0 -0.122986 0.0927734
v 0.0834351 -0.0834351 -0.041626
v 0 0 0.0903931
v -0.058197 -0.0581665 0.114868
v 0.0471497 -0.0471497 -0.111633
v 0 0 -0.121704
v 0 0 0.0903931
v -0.0822754 0 0.114868
v 0 -0.118042 -0.041626
v -0.0870361 -0.0869751 0.0927734
v 0 -0.0666504 -0.111633
v 0 0 -0.121704
v 0 -0.13269 0.029419
v -0.0938721 -0.093811 0.029419
v -0.123047 0 0.0927734
v 0 0 0.0903931
v -0.058197 0.058197 0.114868
v -0.0834961 -0.0834351 -0.041626
v -0.13269 0 0.029419
v -0.0471802 -0.0471497 -0.111633
v 0 0 -0.121704
v -0.0870361 0.0869751 0.0927734
v -0.118042 0 -0.041626
v 0 0 0.0903931
v 0 0.0822754 0.114868
v -0.0667114 0 -0.111633
v 0 0 -0.121704
v 0 0 0.0903931
v 0.058136 0.058197 0.114868
v 0 0.123047 0.0927734
v 0.0869751 0.0869751 0.0927734
v -0.0938721 0.093811 0.029419
v 0 0.13269 0.029419
v 0.093811 0.093811 0.029419
v -0.0834961 0.0834351 -0.041626
v 0 0.118042 -0.041626
v 0.0834351 0.0834351 -0.041626
v -0.0471802 0.0471802 -0.111633
v 0 0 -0.121704
v 0 0.0667114 -0.111633
v 0 0 -0.121704
v 0.0471497 0.0471802 -0.111633
v 0 0 -0.121704
vt -0.05429077 2.96875
vt 0.05429077 2.978516
vt 0.05429077 2.983398
vt 0.05429077 2.983398
vt 0.2381592 2.987305
vt 0.05429077 2.987305
vt 0.2381592 2.983398
vt 0.453125 2.987305
vt 0.05429077 2.978516
vt 0.453125 2.983398
vt 0.2381592 2.96875
vt 0.05429077 2.96875
vt 0.2381592 2.978516
vt 0.453125 2.978516
vt 0.453125 2.96875
vt 1 1
vt 0.875 0.8000488
vt 1 0.8000488
vt 1 0.6000977
vt 0.875 0.6000977
vt 1 0.5058594
vt 0.8125 1
vt 0.75 0.8000488
vt 0.875 0.5058594
vt 1 0.4003906
vt 0.75 0.6000977
vt 0.6875 1
vt 0.625 0.8000488
vt 0.875 0.4003906
vt 1 0.1777344
vt 0.75 0.5058594
vt 0.875 0.1777344
vt 1 0
vt 0.625 0.6000977
vt 0.75 0.4003906
vt 0.5625 1
vt 0.5 0.8000488
vt 0.75 0.1777344
vt 0.8125 0
vt 0.4375 1
vt 0.375 0.8000488
vt 0.625 0.4003906
vt 0.5 0.6000977
vt 0.625 0.1777344
vt 0.6875 0
vt 0.625 0.5058594
vt 0.5 0.5058594
vt 0.375 0.6000977
vt 0.3125 1
vt 0.25 0.8000488
vt 0.5 0.4003906
vt 0.375 0.5058594
vt 0.5 0.1777344
vt 0.5625 0
vt 0.25 0.6000977
vt 0.375 0.4003906
vt 0.1875 1
vt 0.125 0.8000488
vt 0.375 0.1777344
vt 0.4375 0
vt 0 1
vt 0 0.8000488
vt 0.125 0.6000977
vt 0 0.6000977
vt 0.25 0.5058594
vt 0.125 0.5058594
vt 0 0.5058594
vt 0.25 0.4003906
vt 0.125 0.4003906
vt 0 0.4003906
vt 0.25 0.1777344
vt 0.3125 0
vt 0.125 0.1777344
vt 0.1875 0
vt 0 0.1777344
vt 0 0
vn -0.3560138 -0.9252445 -0.1310602
vn 0.9832389 -0.007835031 0.1821533
vn -0.7020271 0.7039819 0.1075522
vn -0.7020271 0.703982 0.1075522
vn -0.2544829 -0.9474601 -0.1937985
vn -0.3560138 -0.9252445 -0.1310602
vn -0.5592167 0.8212279 0.1134082
vn -0.1879317 -0.9748958 -0.1194149
vn 0.983239 -0.007835031 0.1821533
vn -0.4579211 0.8747472 0.1585111
vn -0.2544829 -0.9474601 -0.1937985
vn -0.3560138 -0.9252445 -0.1310602
vn 0.9940303 0.09196699 0.05870313
vn 0.9901394 0.1369759 0.02935231
vn -0.1879317 -0.9748958 -0.1194149
vn 0 0 1
vn 0.2521827 0 0.9676797
vn 0.1779234 0.1779234 0.9678257
vn 0.6453479 0.6453479 0.4087203
vn 0.9124337 0 0.4092246
vn 0.706715 0.706715 -0.03328099
vn 0 0 1
vn 0.1779235 -0.1779243 0.9678255
vn 0.9994472 0 -0.03324969
vn 0.6558163 0.6558155 -0.3739133
vn 0.6453479 -0.6453479 0.4087203
vn 0 0 1
vn 0 -0.2521827 0.9676797
vn 0.927529 0 -0.3737514
vn 0.5181615 0.5181611 -0.6804542
vn 0.7067155 -0.7067147 -0.03328027
vn 0.7330024 0 -0.6802261
vn 0 0 -1
vn 0 -0.9124337 0.4092246
vn 0.655816 -0.655816 -0.3739128
vn 0 0 1
vn -0.1779235 -0.1779243 0.9678255
vn 0.5181614 -0.5181611 -0.6804541
vn 0 0 -1
vn 0 0 1
vn -0.2521827 0 0.9676797
vn 0 -0.9275292 -0.3737511
vn -0.6453479 -0.6453479 0.4087203
vn 0 -0.7330019 -0.6802265
vn 0 0 -1
vn 0 -0.9994472 -0.03324969
vn -0.7067155 -0.7067147 -0.03328027
vn -0.9124337 0 0.4092246
vn 0 0 1
vn -0.1779234 0.1779234 0.9678257
vn -0.655816 -0.655816 -0.3739128
vn -0.9994472 0 -0.03324969
vn -0.5181614 -0.5181611 -0.6804541
vn 0 0 -1
vn -0.6453479 0.6453479 0.4087203
vn -0.927529 0 -0.3737514
vn 0 0 1
vn 0 0.2521827 0.9676797
vn -0.7330024 0 -0.6802261
vn 0 0 -1
vn 0 0 1
vn 0.1779234 0.1779234 0.9678257
vn 0 0.9124337 0.4092246
vn 0.6453479 0.6453479 0.4087203
vn -0.706715 0.706715 -0.03328099
vn 0 0.999447 -0.03325044
vn 0.706715 0.706715 -0.03328099
vn -0.6558163 0.6558155 -0.3739132
vn 0 0.9275292 -0.3737511
vn 0.6558163 0.6558155 -0.3739133
vn -0.5181614 0.5181611 -0.6804541
vn 0 0 -1
vn 0 0.7330027 -0.6802258
vn 0 0 -1
vn 0.5181615 0.5181611 -0.6804541
vn 0 0 -1
f 1/1/1 2/2/2 3/3/3
f 4/4/4 5/5/5 6/6/6
f 7/7/7 5/5/5 4/4/4
f 7/7/7 8/8/8 5/5/5
f 9/9/9 7/7/7 4/4/4
f 10/10/10 8/8/8 7/7/7
f 11/11/11 9/9/9 12/12/12
f 13/13/13 10/10/10 7/7/7
f 13/13/13 7/7/7 9/9/9
f 11/11/11 13/13/13 9/9/9
f 14/14/14 10/10/10 13/13/13
f 15/15/15 13/13/13 11/11/11
f 15/15/15 14/14/14 13/13/13
f 16/16/16 17/17/17 18/18/18
f 17/17/17 19/19/19 18/18/18
f 17/17/17 20/20/20 19/19/19
f 20/20/20 21/21/21 19/19/19
f 17/17/17 22/22/22 23/23/23
f 17/17/17 23/23/23 20/20/20
f 20/20/20 24/24/24 21/21/21
f 24/24/24 25/25/25 21/21/21
f 23/23/23 26/26/26 20/20/20
f 20/20/20 26/26/26 24/24/24
f 23/23/23 27/27/27 28/28/28
f 23/23/23 28/28/28 26/26/26
f 24/24/24 29/29/29 25/25/25
f 29/29/29 30/30/30 25/25/25
f 26/26/26 31/31/31 24/24/24
f 24/24/24 31/31/31 29/29/29
f 32/32/32 33/33/33 30/30/30
f 29/29/29 32/32/32 30/30/30
f 26/26/26 34/34/34 31/31/31
f 28/28/28 34/34/34 26/26/26
f 31/31/31 35/35/35 29/29/29
f 29/29/29 35/35/35 32/32/32
f 28/28/28 36/36/36 37/37/37
f 28/28/28 37/37/37 34/34/34
f 32/32/32 38/38/38 39/39/39
f 35/35/35 38/38/38 32/32/32
f 37/37/37 40/40/40 41/41/41
f 35/35/35 42/42/42 38/38/38
f 37/37/37 41/41/41 43/43/43
f 37/37/37 43/43/43 34/34/34
f 38/38/38 44/44/44 45/45/45
f 42/42/42 44/44/44 38/38/38
f 34/34/34 43/43/43 46/46/46
f 34/34/34 46/46/46 31/31/31
f 31/31/31 46/46/46 35/35/35
f 46/46/46 42/42/42 35/35/35
f 43/43/43 47/47/47 46/46/46
f 46/46/46 47/47/47 42/42/42
f 41/41/41 48/48/48 43/43/43
f 43/43/43 48/48/48 47/47/47
f 41/41/41 49/49/49 50/50/50
f 41/41/41 50/50/50 48/48/48
f 47/47/47 51/51/51 42/42/42
f 42/42/42 51/51/51 44/44/44
f 48/48/48 52/52/52 47/47/47
f 47/47/47 52/52/52 51/51/51
f 44/44/44 53/53/53 54/54/54
f 51/51/51 53/53/53 44/44/44
f 48/48/48 55/55/55 52/52/52
f 50/50/50 55/55/55 48/48/48
f 52/52/52 56/56/56 51/51/51
f 51/51/51 56/56/56 53/53/53
f 50/50/50 57/57/57 58/58/58
f 50/50/50 58/58/58 55/55/55
f 53/53/53 59/59/59 60/60/60
f 56/56/56 59/59/59 53/53/53
f 58/58/58 61/61/61 62/62/62
f 58/58/58 62/62/62 63/63/63
f 58/58/58 63/63/63 55/55/55
f 62/62/62 64/64/64 63/63/63
f 55/55/55 65/65/65 52/52/52
f 55/55/55 63/63/63 65/65/65
f 52/52/52 65/65/65 56/56/56
f 63/63/63 64/64/64 66/66/66
f 63/63/63 66/66/66 65/65/65
f 64/64/64 67/67/67 66/66/66
f 65/65/65 68/68/68 56/56/56
f 65/65/65 66/66/66 68/68/68
f 56/56/56 68/68/68 59/59/59
f 66/66/66 67/67/67 69/69/69
f 66/66/66 69/69/69 68/68/68
f 67/67/67 70/70/70 69/69/69
f 68/68/68 71/71/71 59/59/59
f 68/68/68 69/69/69 71/71/71
f 59/59/59 71/71/71 72/72/72
f 69/69/69 70/70/70 73/73/73
f 69/69/69 73/73/73 71/71/71
f 71/71/71 73/73/73 74/74/74
f 70/70/70 75/75/75 73/73/73
f 73/73/73 75/75/75 76/76/76
